<?xml version="1.0" standalone="no"?><svg xmlns:xlink="http://www.w3.org/1999/xlink" xmlns="http://www.w3.org/2000/svg" viewBox="0 0 1000 692.3125006634169" preserveAspectRatio="xMaxYMax slice"><g transform="scale(1.1794080079444922)"><rect x="0" y="0" width="847.8888888888889" height="587" fill="#131316"/><rect x="136.97" y="71.74" width="52.18" height="52.18" fill="#313138"/><rect x="136.97" y="136.97" width="52.18" height="52.18" fill="#2d2d33"/><g transform="translate(463.08,136.97) scale(2.609) rotate(0)"><path d="M10 0H20V10L10 20H0V10L10 0Z" fill="#151518"/></g><rect x="658.74" y="136.97" width="52.18" height="52.18" fill="#34343b"/><g transform="translate(789.19,136.97) scale(2.609) rotate(0)"><path d="M10 0H20V10L10 20H0V10L10 0Z" fill="#323239"/></g><polygon points="267.41,202.19 319.59000000000003,202.19 267.41,254.37" fill="#40404a"/><polygon points="463.08,202.19 515.26,202.19 463.08,254.37" fill="#1d1d21"/><path d="M 528.3 254.37 A 52.18 52.18 0 0 1  580.4799999999999 202.19 L 528.3 254.37 A 52.18 52.18 0 0 0 580.4799999999999 202.19" fill="#494954"/><g transform="translate(593.52,202.19) scale(2.609) rotate(0)"><path d="M10 0H20V10L10 20H0V10L10 0Z" fill="#26262c"/></g><rect x="723.97" y="202.19" width="52.18" height="52.18" fill="#535360"/><rect x="6.52" y="267.41" width="52.18" height="52.18" fill="#36363d"/><g transform="translate(71.74,267.41) scale(2.609) rotate(0)"><path d="M10 0H20V10L10 20H0V10L10 0Z" fill="#19191d"/></g><rect x="136.97" y="267.41" width="52.18" height="52.18" fill="#1b1b1f"/><g transform="translate(202.19,267.41) scale(2.609) rotate(0)"><path d="M10 0H20V10L10 20H0V10L10 0Z" fill="#2b2b32"/></g><rect x="332.63" y="267.41" width="52.18" height="52.18" fill="#17171a"/><g transform="translate(528.3,267.41) scale(2.609) rotate(0)"><path d="M10 0H20V10L10 20H0V10L10 0Z" fill="#161619"/></g><polygon points="776.15,267.41 776.15,319.59000000000003 723.97,319.59000000000003" fill="#4a4a55"/><rect x="6.52" y="332.63" width="52.18" height="52.18" fill="#38383f"/><g transform="translate(71.74,332.63) scale(2.609) rotate(0)"><path d="M10 0H20V10L10 20H0V10L10 0Z" fill="#1d1d22"/></g><path d="M 136.97 384.81 A 52.18 52.18 0 0 1  189.15 332.63 L 136.97 384.81 A 52.18 52.18 0 0 0 189.15 332.63" fill="#36363e"/><path d="M 332.63 332.63 A 52.18 52.18 0 0 1  384.81 384.81 L 332.63 332.63 A 52.18 52.18 0 0 0 384.81 384.81" fill="#1b1b20"/><path d="M 397.86 332.63 A 52.18 52.18 0 0 1  450.04 384.81 L 397.86 332.63 A 52.18 52.18 0 0 0 450.04 384.81" fill="#27272c"/><g transform="translate(463.08,332.63) scale(2.609) rotate(0)"><path d="M10 0H20V10L10 20H0V10L10 0Z" fill="#1f1f24"/></g><g transform="translate(528.3,332.63) scale(2.609) rotate(0)"><path d="M10 0H20V10L10 20H0V10L10 0Z" fill="#1c1c21"/></g><g transform="translate(593.52,332.63) scale(2.609) rotate(0)"><path d="M10 0H20V10L10 20H0V10L10 0Z" fill="#26262c"/></g><rect x="723.97" y="332.63" width="52.18" height="52.18" fill="#36363f"/><g transform="translate(6.52,397.86) scale(2.609) rotate(0)"><path d="M10 0H20V10L10 20H0V10L10 0Z" fill="#222227"/></g><rect x="71.74" y="397.86" width="52.18" height="52.18" fill="#18181b"/><g transform="translate(202.19,397.86) scale(2.609) rotate(0)"><path d="M10 0H20V10L10 20H0V10L10 0Z" fill="#1c1c20"/></g><rect x="267.41" y="397.86" width="52.18" height="52.18" fill="#2a2a30"/><rect x="332.63" y="397.86" width="52.18" height="52.18" fill="#51515e"/><polygon points="450.04,397.86 450.04,450.04 397.86,450.04" fill="#2a2a30"/><g transform="translate(463.08,397.86) scale(2.609) rotate(0)"><path d="M10 0H20V10L10 20H0V10L10 0Z" fill="#37373f"/></g><g transform="translate(528.3,397.86) scale(2.609) rotate(0)"><path d="M10 0H20V10L10 20H0V10L10 0Z" fill="#17171a"/></g><rect x="593.52" y="397.86" width="52.18" height="52.18" fill="#43434e"/><g transform="translate(6.52,463.08) scale(2.609) rotate(0)"><path d="M10 0H20V10L10 20H0V10L10 0Z" fill="#18181b"/></g><path d="M 71.74 463.08 A 52.18 52.18 0 0 1  123.91999999999999 515.26 L 71.74 463.08 A 52.18 52.18 0 0 0 123.91999999999999 515.26" fill="#4f4f5c"/><rect x="136.97" y="463.08" width="52.18" height="52.18" fill="#222227"/><rect x="267.41" y="463.08" width="52.18" height="52.18" fill="#222228"/><rect x="332.63" y="463.08" width="52.18" height="52.18" fill="#232328"/><rect x="397.86" y="463.08" width="52.18" height="52.18" fill="#545461"/><polygon points="463.08,463.08 515.26,463.08 463.08,515.26" fill="#1c1c20"/><g transform="translate(528.3,463.08) scale(2.609) rotate(0)"><path d="M10 0H20V10L10 20H0V10L10 0Z" fill="#151519"/></g><polygon points="593.52,463.08 645.6999999999999,463.08 645.6999999999999,515.26" fill="#3b3b44"/><rect x="658.74" y="463.08" width="52.18" height="52.18" fill="#50505d"/><path d="M 723.97 515.26 A 52.18 52.18 0 0 1  776.15 463.08 L 723.97 515.26 A 52.18 52.18 0 0 0 776.15 463.08" fill="#212126"/><rect x="789.19" y="463.08" width="52.18" height="52.18" fill="#383841"/><path d="M 6.52 580.4799999999999 A 52.18 52.18 0 0 1  58.7 528.3 L 6.52 580.4799999999999 A 52.18 52.18 0 0 0 58.7 528.3" fill="#36363e"/><path d="M 71.74 528.3 A 52.18 52.18 0 0 1  123.91999999999999 580.4799999999999 L 71.74 528.3 A 52.18 52.18 0 0 0 123.91999999999999 580.4799999999999" fill="#3b3b44"/><path d="M 136.97 580.4799999999999 A 52.18 52.18 0 0 1  189.15 528.3 L 136.97 580.4799999999999 A 52.18 52.18 0 0 0 189.15 528.3" fill="#51515e"/><path d="M 202.19 528.3 A 52.18 52.18 0 0 1  254.37 580.4799999999999 L 202.19 528.3 A 52.18 52.18 0 0 0 254.37 580.4799999999999" fill="#2e2e35"/><polygon points="319.59000000000003,528.3 319.59000000000003,580.4799999999999 267.41,580.4799999999999" fill="#555562"/><polygon points="332.63,528.3 384.81,528.3 384.81,580.4799999999999" fill="#1d1d21"/><g transform="translate(397.86,528.3) scale(2.609) rotate(0)"><path d="M10 0H20V10L10 20H0V10L10 0Z" fill="#2a2a31"/></g><polygon points="515.26,528.3 515.26,580.4799999999999 463.08,580.4799999999999" fill="#36363e"/><g transform="translate(528.3,528.3) scale(2.609) rotate(0)"><path d="M10 0H20V10L10 20H0V10L10 0Z" fill="#26262b"/></g><g transform="translate(593.52,528.3) scale(2.609) rotate(0)"><path d="M10 0H20V10L10 20H0V10L10 0Z" fill="#202024"/></g><polygon points="658.74,528.3 710.92,580.4799999999999 658.74,580.4799999999999" fill="#19191d"/><path d="M 723.97 580.4799999999999 A 52.18 52.18 0 0 1  776.15 528.3 L 723.97 580.4799999999999 A 52.18 52.18 0 0 0 776.15 528.3" fill="#53535f"/><rect x="789.19" y="528.3" width="52.18" height="52.18" fill="#2a2a30"/></g></svg>