<?xml version="1.0" standalone="no"?><svg xmlns:xlink="http://www.w3.org/1999/xlink" xmlns="http://www.w3.org/2000/svg" viewBox="0 0 1000 666.6666666666667" preserveAspectRatio="xMaxYMax slice"><g transform="scale(1.0351966873706004)"><rect x="0" y="0" width="966.0000000000001" height="644" fill="#ffffff"/><path d="M 135.24 122.36000000000001 A 51.52 51.52 0 0 1  186.76000000000002 70.84 L 186.76000000000002 122.36000000000001" fill="#acacb2"/><rect x="392.84" y="70.84" width="51.52" height="51.52" fill="#a0a0a8"/><path d="M 908.04 122.36000000000001 A 51.52 51.52 0 0 1  959.56 70.84 L 959.56 122.36000000000001" fill="#919195"/><polygon points="135.24,135.24 186.76000000000002,135.24 186.76000000000002,186.76000000000002" fill="#c9c9cb"/><path d="M 199.64 186.76000000000002 A 51.52 51.52 0 0 1  251.16 135.24 L 199.64 186.76000000000002 A 51.52 51.52 0 0 0 251.16 135.24" fill="#909099"/><path d="M 392.84 186.76000000000002 A 51.52 51.52 0 0 1  444.35999999999996 135.24 L 392.84 186.76000000000002 A 51.52 51.52 0 0 0 444.35999999999996 135.24" fill="#3b3b41"/><rect x="521.64" y="135.24" width="51.52" height="51.52" fill="#96969a"/><rect x="779.24" y="135.24" width="51.52" height="51.52" fill="#f4f4f4"/><polygon points="251.16,199.64 251.16,251.16 199.64,251.16" fill="#fbfbfb"/><rect x="264.04" y="199.64" width="51.52" height="51.52" fill="#c4c4c8"/><path d="M 586.04 199.64 A 51.52 51.52 0 0 1 637.56 251.16 L 586.04 251.16" fill="#5b5b61"/><path d="M 714.84 251.16 A 51.52 51.52 0 0 1  766.36 199.64 L 714.84 251.16 A 51.52 51.52 0 0 0 766.36 199.64" fill="#a4a4a7"/><path d="M 6.44 264.04 A 51.52 51.52 0 0 1  57.96 315.56 L 6.44 264.04 A 51.52 51.52 0 0 0 57.96 315.56" fill="#b7b7ba"/><path d="M 70.84 264.04 A 51.52 51.52 0 0 1 122.36000000000001 315.56 L 70.84 315.56" fill="#323239"/><rect x="135.24" y="264.04" width="51.52" height="51.52" fill="#c6c6c8"/><path d="M 199.64 315.56 A 51.52 51.52 0 0 1  251.16 264.04 L 199.64 315.56 A 51.52 51.52 0 0 0 251.16 264.04" fill="#fafafa"/><rect x="264.04" y="264.04" width="51.52" height="51.52" fill="#555562"/><rect x="328.44" y="264.04" width="51.52" height="51.52" fill="#44444a"/><rect x="457.24" y="264.04" width="51.52" height="51.52" fill="#93939c"/><path d="M 843.64 264.04 A 51.52 51.52 0 0 1  895.16 315.56 L 843.64 264.04 A 51.52 51.52 0 0 0 895.16 315.56" fill="#ababae"/><polygon points="908.04,264.04 959.56,315.56 908.04,315.56" fill="#8f8f93"/><rect x="6.44" y="328.44" width="51.52" height="51.52" fill="#98989b"/><rect x="199.64" y="328.44" width="51.52" height="51.52" fill="#cdcdd0"/><polygon points="315.56,328.44 315.56,379.96 264.04,379.96" fill="#c1c1c6"/><rect x="328.44" y="328.44" width="51.52" height="51.52" fill="#b5b5ba"/><path d="M 392.84 379.96 A 51.52 51.52 0 0 1  444.35999999999996 328.44 L 444.35999999999996 379.96" fill="#b0b0b6"/><path d="M 779.24 328.44 A 51.52 51.52 0 0 1  830.76 379.96 L 779.24 328.44 A 51.52 51.52 0 0 0 830.76 379.96" fill="#a8a8ab"/><rect x="6.44" y="392.84" width="51.52" height="51.52" fill="#949497"/><path d="M 135.24 444.35999999999996 A 51.52 51.52 0 0 1  186.76000000000002 392.84 L 135.24 444.35999999999996 A 51.52 51.52 0 0 0 186.76000000000002 392.84" fill="#c8c8ca"/><path d="M 264.04 392.84 A 51.52 51.52 0 0 1  315.56 444.35999999999996 L 264.04 392.84 A 51.52 51.52 0 0 0 315.56 444.35999999999996" fill="#686874"/><rect x="328.44" y="392.84" width="51.52" height="51.52" fill="#eeeeef"/><polygon points="392.84,392.84 444.35999999999996,392.84 444.35999999999996,444.35999999999996" fill="#e0e0e2"/><path d="M 457.24 392.84 A 51.52 51.52 0 0 1  508.76 444.35999999999996 L 457.24 392.84 A 51.52 51.52 0 0 0 508.76 444.35999999999996" fill="#777781"/><path d="M 586.04 444.35999999999996 A 51.52 51.52 0 0 1  637.56 392.84 L 586.04 444.35999999999996 A 51.52 51.52 0 0 0 637.56 392.84" fill="#47474d"/><rect x="714.84" y="392.84" width="51.52" height="51.52" fill="#6d6d78"/><polygon points="779.24,392.84 830.76,392.84 830.76,444.35999999999996" fill="#dedee0"/><rect x="843.64" y="392.84" width="51.52" height="51.52" fill="#505056"/><rect x="908.04" y="392.84" width="51.52" height="51.52" fill="#fbfbfb"/><path d="M 6.44 457.24 A 51.52 51.52 0 0 1  57.96 508.76 L 6.44 457.24 A 51.52 51.52 0 0 0 57.96 508.76" fill="#9e9ea2"/><path d="M 70.84 457.24 A 51.52 51.52 0 0 1 122.36000000000001 508.76 L 70.84 508.76" fill="#f2f2f2"/><path d="M 135.24 457.24 A 51.52 51.52 0 0 1  186.76000000000002 508.76 L 135.24 457.24 A 51.52 51.52 0 0 0 186.76000000000002 508.76" fill="#e4e4e6"/><rect x="264.04" y="457.24" width="51.52" height="51.52" fill="#bababf"/><rect x="328.44" y="457.24" width="51.52" height="51.52" fill="#93939b"/><rect x="392.84" y="457.24" width="51.52" height="51.52" fill="#d9d9da"/><path d="M 457.24 508.76 A 51.52 51.52 0 0 1  508.76 457.24 L 457.24 508.76 A 51.52 51.52 0 0 0 508.76 457.24" fill="#f5f5f5"/><polygon points="573.16,457.24 573.16,508.76 521.64,508.76" fill="#cbcbcf"/><polygon points="586.04,457.24 637.56,457.24 637.56,508.76" fill="#36363d"/><path d="M 714.84 457.24 A 51.52 51.52 0 0 1  766.36 508.76 L 714.84 457.24 A 51.52 51.52 0 0 0 766.36 508.76" fill="#ababb1"/><polygon points="895.16,457.24 895.16,508.76 843.64,508.76" fill="#d5d5d8"/><path d="M 70.84 573.16 A 51.52 51.52 0 0 0 122.36000000000001 521.64 L 70.84 521.64" fill="#666672"/><polygon points="135.24,521.64 186.76000000000002,521.64 135.24,573.16" fill="#dadadd"/><path d="M 199.64 521.64 A 51.52 51.52 0 0 0 251.16 573.16 L 251.16 521.64" fill="#c4c4c8"/><path d="M 264.04 573.16 A 51.52 51.52 0 0 1  315.56 521.64 L 264.04 573.16 A 51.52 51.52 0 0 0 315.56 521.64" fill="#858589"/><path d="M 328.44 573.16 A 51.52 51.52 0 0 0 379.96 521.64 L 328.44 521.64" fill="#646470"/><path d="M 392.84 521.64 A 51.52 51.52 0 0 1  444.35999999999996 573.16 L 392.84 521.64 A 51.52 51.52 0 0 0 444.35999999999996 573.16" fill="#c4c4c6"/><polygon points="457.24,521.64 508.76,521.64 457.24,573.16" fill="#8b8b8f"/><path d="M 521.64 521.64 A 51.52 51.52 0 0 1 573.16 573.16 L 521.64 573.16" fill="#4f4f55"/><polygon points="637.56,521.64 637.56,573.16 586.04,573.16" fill="#8b8b94"/><path d="M 650.44 573.16 A 51.52 51.52 0 0 1  701.96 521.64 L 650.44 573.16 A 51.52 51.52 0 0 0 701.96 521.64" fill="#9f9fa6"/><rect x="714.84" y="521.64" width="51.52" height="51.52" fill="#c5c5ca"/><path d="M 779.24 573.16 A 51.52 51.52 0 0 1  830.76 521.64 L 779.24 573.16 A 51.52 51.52 0 0 0 830.76 521.64" fill="#e6e6e8"/><path d="M 843.64 573.16 A 51.52 51.52 0 0 1  895.16 521.64 L 843.64 573.16 A 51.52 51.52 0 0 0 895.16 521.64" fill="#a1a1a4"/><path d="M 908.04 521.64 A 51.52 51.52 0 0 0 959.56 573.16 L 959.56 521.64" fill="#b4b4b6"/><rect x="6.44" y="586.04" width="51.52" height="51.52" fill="#dadadd"/><polygon points="70.84,586.04 122.36000000000001,586.04 122.36000000000001,637.56" fill="#f4f4f5"/><path d="M 135.24 637.56 A 51.52 51.52 0 0 1  186.76000000000002 586.04 L 135.24 637.56 A 51.52 51.52 0 0 0 186.76000000000002 586.04" fill="#3b3b42"/><rect x="199.64" y="586.04" width="51.52" height="51.52" fill="#c7c7c9"/><rect x="264.04" y="586.04" width="51.52" height="51.52" fill="#b0b0b6"/><path d="M 328.44 637.56 A 51.52 51.52 0 0 1  379.96 586.04 L 379.96 637.56" fill="#9999a1"/><path d="M 392.84 586.04 A 51.52 51.52 0 0 1 444.35999999999996 637.56 L 392.84 637.56" fill="#434349"/><path d="M 457.24 637.56 A 51.52 51.52 0 0 1  508.76 586.04 L 457.24 637.56 A 51.52 51.52 0 0 0 508.76 586.04" fill="#9c9ca3"/><path d="M 521.64 637.56 A 51.52 51.52 0 0 0 573.16 586.04 L 521.64 586.04" fill="#9898a0"/><polygon points="586.04,586.04 637.56,637.56 586.04,637.56" fill="#3e3e45"/><rect x="650.44" y="586.04" width="51.52" height="51.52" fill="#eaeaec"/><path d="M 714.84 586.04 A 51.52 51.52 0 0 1  766.36 637.56 L 714.84 586.04 A 51.52 51.52 0 0 0 766.36 637.56" fill="#2e2e35"/><rect x="779.24" y="586.04" width="51.52" height="51.52" fill="#8f8f92"/><polygon points="843.64,586.04 895.16,586.04 895.16,637.56" fill="#98989c"/><rect x="908.04" y="586.04" width="51.52" height="51.52" fill="#75757a"/></g></svg>